<svg width="60" height="60" viewBox="0 0 60 60" fill="none" xmlns="http://www.w3.org/2000/svg">
<path d="M48.8506 8.3984C49.2646 8.3984 49.6006 8.06315 49.6006 7.6484V6.73642H58.9987C59.4127 6.73642 59.7487 6.40117 59.7487 5.98643V2.41197C59.7487 1.99722 59.4127 1.66198 58.9987 1.66198H49.6006V0.749991C49.6006 0.335246 49.2646 0 48.8506 0H42.1449C41.7309 0 41.3949 0.335246 41.3949 0.749991V7.64766C41.3949 8.0624 41.7309 8.39765 42.1449 8.39765H42.8837V14.3443H39.661C37.7642 14.3443 36.2215 15.8878 36.2215 17.7838V21.2322C33.0573 23.5107 31.2476 26.7154 31.2476 30.0844V57.1223C31.2476 58.7085 32.8293 60 34.774 60H56.2222C58.167 60 59.7495 58.7085 59.7495 57.1223V30.0844C59.7495 26.7289 57.9367 23.5085 54.7755 21.233V17.7838C54.7755 15.8878 53.232 14.3443 51.3353 14.3443H47.9693V8.39765H48.8506V8.3984ZM58.2487 3.16271V5.23718H49.6006V3.16271H58.2487ZM42.8949 1.50073H48.1006V6.89841H42.8949V1.50073ZM58.2487 48.3481H32.7475V32.8233H58.2487V48.3481ZM56.2215 58.5H34.774C33.6753 58.5 32.7475 57.8693 32.7475 57.1223V49.8481H58.2487V57.1223C58.2487 57.8693 57.3202 58.5 56.2215 58.5ZM58.2487 30.0844V31.3226H32.7475V30.0844C32.7475 27.1662 34.3795 24.3679 37.219 22.3692H53.8028C53.8148 22.379 53.8208 22.3925 53.8328 22.4015C56.6805 24.4234 58.2487 27.1519 58.2487 30.0844ZM53.2748 17.7845V20.8692H37.7215V17.7845C37.7215 16.715 38.5915 15.8451 39.661 15.8451H51.3338C52.404 15.8451 53.2748 16.715 53.2748 17.7845ZM46.4686 14.3451H44.3844V8.3984H46.4686V14.3451Z" fill="#18384B"/>
<path d="M0 22.0719V56.3C0 58.2987 1.62598 59.9254 3.6247 59.9254H25.3219C27.3207 59.9254 28.9466 58.2987 28.9466 56.3V22.0719C28.9466 20.0732 27.3207 18.4465 25.3219 18.4465H22.7937V14.7745C22.7937 12.6753 21.2735 10.9278 19.2778 10.5656V3.2359C19.2778 1.49367 17.822 0.0754395 16.0325 0.0754395H12.9141C11.1246 0.0754395 9.66888 1.49367 9.66888 3.2359V10.5656C7.67315 10.9271 6.15292 12.6753 6.15292 14.7745V18.4465H3.6247C1.62673 18.4465 0 20.0732 0 22.0719ZM27.5974 22.0719V56.3C27.5974 57.5547 26.5767 58.5747 25.3219 58.5747H3.6247C2.36997 58.5747 1.34923 57.5547 1.34923 56.3V22.0719C1.34923 20.8172 2.36997 19.7972 3.6247 19.7972H25.3219C26.5774 19.7972 27.5974 20.8172 27.5974 22.0719ZM12.9148 1.42542H16.0333C17.0788 1.42542 17.9285 2.23691 17.9285 3.23515V10.4928H11.0196V3.23515C11.0189 2.23691 11.8694 1.42542 12.9148 1.42542ZM7.50291 14.7738C7.50291 13.1583 8.81689 11.8435 10.4331 11.8435H18.5143C20.1297 11.8435 21.4445 13.1583 21.4445 14.7738V18.4457H7.50291V14.7738Z" fill="#18384B"/>
<path d="M14.4735 52.8786C19.7857 52.8786 24.1071 46.7354 24.1071 39.1845C24.1071 31.6336 19.7857 25.4912 14.4735 25.4912C9.16129 25.4912 4.83984 31.6336 4.83984 39.1845C4.83984 46.7354 9.16204 52.8786 14.4735 52.8786ZM14.4735 26.8419C19.0409 26.8419 22.7571 32.3791 22.7571 39.1845C22.7571 45.9907 19.0409 51.5279 14.4735 51.5279C9.90603 51.5279 6.18983 45.9907 6.18983 39.1845C6.19058 32.3791 9.90603 26.8419 14.4735 26.8419Z" fill="#18384B"/>
<path d="M14.4733 7.11241C14.8461 7.11241 15.1483 6.81017 15.1483 6.43742V4.56244C15.1483 4.1897 14.8461 3.88745 14.4733 3.88745C14.1006 3.88745 13.7983 4.1897 13.7983 4.56244V6.43742C13.7991 6.81017 14.1006 7.11241 14.4733 7.11241Z" fill="#18384B"/>
</svg>
