<svg width="60" height="60" viewBox="0 0 60 60" fill="none" xmlns="http://www.w3.org/2000/svg">
<path d="M49.8335 1.50024C45.4734 1.50024 41.9263 5.04736 41.9263 9.40674C41.9263 13.7668 45.4734 17.314 49.8335 17.314C54.1929 17.314 57.74 13.7668 57.74 9.40674C57.74 5.04736 54.1929 1.50024 49.8335 1.50024ZM49.8335 15.814C46.3003 15.814 43.4263 12.9399 43.4263 9.40674C43.4263 5.87427 46.3003 3.00024 49.8335 3.00024C53.366 3.00024 56.24 5.87427 56.24 9.40674C56.24 12.9399 53.366 15.814 49.8335 15.814Z" fill="#18384B"/>
<path d="M19.2383 7.77222C19.2383 3.50146 15.7637 0.0268555 11.4929 0.0268555C7.22217 0.0268555 3.74756 3.50146 3.74756 7.77222C3.74756 12.043 7.22217 15.5176 11.4929 15.5176C15.7637 15.5176 19.2383 12.043 19.2383 7.77222ZM5.24756 7.77222C5.24756 4.32837 8.04907 1.52686 11.4929 1.52686C14.9368 1.52686 17.7383 4.32837 17.7383 7.77222C17.7383 11.2161 14.9368 14.0176 11.4929 14.0176C8.04907 14.0176 5.24756 11.2161 5.24756 7.77222Z" fill="#18384B"/>
<path d="M12.2429 5.1958C12.2429 4.78125 11.9075 4.4458 11.4929 4.4458C9.6582 4.4458 8.16553 5.93848 8.16553 7.77246C8.16553 8.18701 8.50098 8.52246 8.91553 8.52246C9.33008 8.52246 9.66553 8.18701 9.66553 7.77246C9.66553 6.76538 10.4851 5.9458 11.4929 5.9458C11.9075 5.9458 12.2429 5.61035 12.2429 5.1958Z" fill="#18384B"/>
<path d="M54.0491 24.2534C50.7678 24.2534 48.0981 26.9231 48.0981 30.2043C48.0981 33.4856 50.7678 36.1553 54.0491 36.1553C57.3303 36.1553 60 33.4856 60 30.2043C60 26.9231 57.3303 24.2534 54.0491 24.2534ZM54.0491 34.6553C51.5947 34.6553 49.5981 32.6587 49.5981 30.2043C49.5981 27.75 51.5947 25.7534 54.0491 25.7534C56.5034 25.7534 58.5 27.75 58.5 30.2043C58.5 32.6587 56.5034 34.6553 54.0491 34.6553Z" fill="#18384B"/>
<path d="M54.0493 27.5386C52.5793 27.5386 51.3833 28.7346 51.3833 30.2046C51.3833 30.6191 51.7188 30.9546 52.1333 30.9546C52.5479 30.9546 52.8833 30.6191 52.8833 30.2046C52.8833 29.5615 53.4062 29.0386 54.0493 29.0386C54.4639 29.0386 54.7993 28.7031 54.7993 28.2886C54.7993 27.874 54.4639 27.5386 54.0493 27.5386Z" fill="#18384B"/>
<path d="M49.6282 5.14648C47.2786 5.14648 45.3677 7.05737 45.3677 9.40625C45.3677 9.8208 45.7031 10.1562 46.1177 10.1562C46.5322 10.1562 46.8677 9.8208 46.8677 9.40625C46.8677 7.88428 48.1062 6.64648 49.6282 6.64648C50.0427 6.64648 50.3782 6.31104 50.3782 5.89648C50.3782 5.48193 50.0427 5.14648 49.6282 5.14648Z" fill="#18384B"/>
<path d="M9.47388 43.5688C10.8414 43.5688 12.1389 43.2716 13.3141 42.7478L12.6438 56.0537C12.6438 58.2297 14.4141 60 16.5901 60H43.0957C45.2717 60 47.042 58.2297 47.0413 56.0178L45.542 24.6606C45.542 22.4846 43.7717 20.7144 41.5957 20.7144H38.8755V15.1296C38.8755 13.0042 37.4334 11.6098 35.0662 11.3427V3.44238C35.0662 1.54395 33.4805 0 31.5315 0H28.1536C26.2046 0 24.6189 1.54395 24.6189 3.44238V11.3427C22.2518 11.6101 20.8096 13.0043 20.8096 15.1296V20.7144H18.0901C15.9141 20.7144 14.1438 22.4846 14.1467 24.5955L14.0412 25.8008C12.6856 25.0512 11.1295 24.6218 9.47388 24.6218C4.25024 24.6218 0 28.8721 0 34.0957C0 39.3193 4.25024 43.5688 9.47388 43.5688ZM18.947 34.0957C18.947 32.4622 18.5314 30.924 17.8004 29.5811H44.2763L45.2837 50.6521H14.4176L14.8603 41.8788C17.3264 40.1668 18.947 37.3186 18.947 34.0957ZM43.0957 58.5H16.5901C15.241 58.5 14.1438 57.4028 14.1431 56.0918L14.3419 52.1521H45.3555L45.542 56.0537C45.542 57.4028 44.4448 58.5 43.0957 58.5ZM28.1536 1.5H31.5315C32.6536 1.5 33.5662 2.37158 33.5662 3.44238V11.2866H26.1189V3.44238C26.1189 2.37158 27.0315 1.5 28.1536 1.5ZM22.3096 15.1296C22.3096 13.0913 24.2871 12.7866 25.4656 12.7866H34.2202C35.3987 12.7866 37.3755 13.0913 37.3755 15.1296V20.7144H22.3096V15.1296ZM15.6438 24.6606C15.6438 23.3115 16.741 22.2144 18.0901 22.2144H41.5957C42.9448 22.2144 44.042 23.3115 44.0427 24.6965L44.2045 28.0811H16.7872C16.3901 27.5991 15.9456 27.1581 15.4624 26.7626L15.6438 24.6606ZM9.47388 26.1218C13.8706 26.1218 17.447 29.699 17.447 34.0957C17.447 38.4924 13.8706 42.0688 9.47388 42.0688C5.07715 42.0688 1.5 38.4924 1.5 34.0957C1.5 29.699 5.07715 26.1218 9.47388 26.1218Z" fill="#18384B"/>
<path d="M5.09814 34.7251C5.5127 34.7251 5.84814 34.3896 5.84814 33.9751C5.84814 31.8181 7.60303 30.0632 9.76001 30.0632C10.1746 30.0632 10.51 29.7278 10.51 29.3132C10.51 28.8987 10.1746 28.5632 9.76001 28.5632C6.77612 28.5632 4.34814 30.9912 4.34814 33.9751C4.34814 34.3896 4.68359 34.7251 5.09814 34.7251Z" fill="#18384B"/>
<path d="M29.8428 7.66138C30.2573 7.66138 30.5928 7.32593 30.5928 6.91138V4.88037C30.5928 4.46582 30.2573 4.13037 29.8428 4.13037C29.4282 4.13037 29.0928 4.46582 29.0928 4.88037V6.91138C29.0928 7.32593 29.4282 7.66138 29.8428 7.66138Z" fill="#18384B"/>
<path d="M34.3159 15.5195C33.9014 15.5195 33.5659 15.855 33.5659 16.2695V18.2002C33.5659 18.6147 33.9014 18.9502 34.3159 18.9502C34.7305 18.9502 35.0659 18.6147 35.0659 18.2002V16.2695C35.0659 15.855 34.7305 15.5195 34.3159 15.5195Z" fill="#18384B"/>
<path d="M29.9839 15.5195C29.5693 15.5195 29.2339 15.855 29.2339 16.2695V18.2002C29.2339 18.6147 29.5693 18.9502 29.9839 18.9502C30.3984 18.9502 30.7339 18.6147 30.7339 18.2002V16.2695C30.7339 15.855 30.3984 15.5195 29.9839 15.5195Z" fill="#18384B"/>
<path d="M25.6514 15.5195C25.2368 15.5195 24.9014 15.855 24.9014 16.2695V18.2002C24.9014 18.6147 25.2368 18.9502 25.6514 18.9502C26.0659 18.9502 26.4014 18.6147 26.4014 18.2002V16.2695C26.4014 15.855 26.0659 15.5195 25.6514 15.5195Z" fill="#18384B"/>
</svg>
