<svg width="60" height="60" viewBox="0 0 60 60" fill="none" xmlns="http://www.w3.org/2000/svg">
<path d="M41.6823 15.0612C42.9713 15.0612 44.297 14.5302 45.2646 13.1862C45.384 13.0207 45.4953 12.8486 45.5971 12.6677C47.5278 9.26702 45.4711 4.60001 45.3825 4.40299C45.2485 4.10563 44.9335 3.92472 44.6127 3.96573C44.3981 3.99063 39.3341 4.61173 37.4013 8.01237C37.2987 8.19255 37.2072 8.37566 37.1281 8.56023C36.0119 11.1288 37.4166 13.3854 39.1935 14.3962C39.9193 14.8085 40.7924 15.0612 41.6823 15.0612ZM38.5043 9.15642C38.5636 9.02019 38.6303 8.88542 38.705 8.75359C39.9281 6.60246 42.9604 5.79826 44.2209 5.54997C44.6537 6.76066 45.5143 9.77752 44.2919 11.9286C44.2912 11.9294 44.2904 11.9301 44.2904 11.9308C44.2165 12.0619 44.1359 12.1872 44.048 12.3088C42.9472 13.8381 41.1894 13.8044 39.9347 13.0917C38.6815 12.3791 37.7528 10.8864 38.5043 9.15642Z" fill="#18384B"/>
<path d="M30.1266 11.8902C30.1376 11.8902 30.1493 11.8902 30.1603 11.8902C32.2045 11.8763 34.5321 10.5923 34.8127 7.80546C34.8324 7.60404 34.8427 7.40043 34.842 7.19608C34.842 7.19535 34.842 7.19462 34.842 7.19389C34.8149 3.28201 30.6986 0.268086 30.5236 0.142109C30.2584 -0.0497861 29.9003 -0.0468564 29.6381 0.147968C29.4645 0.276875 25.3893 3.34646 25.4157 7.25907C25.4171 7.46415 25.4303 7.66777 25.453 7.86918C25.7694 10.6363 28.0905 11.8902 30.1266 11.8902ZM30.0922 1.71536C31.0714 2.54373 33.3236 4.71829 33.3419 7.20268C33.3427 7.35502 33.3354 7.5059 33.32 7.65531C33.1317 9.53105 31.5922 10.3799 30.15 10.3902C30.142 10.3902 30.1332 10.3902 30.1251 10.3902C28.6903 10.3902 27.1559 9.56035 26.9435 7.69999C26.9259 7.55058 26.9171 7.3997 26.9157 7.24809C26.8988 4.77249 29.1246 2.55984 30.0922 1.71536Z" fill="#18384B"/>
<path d="M21.0844 14.2364C22.8474 13.2022 24.2214 10.9258 23.0707 8.37187C22.9872 8.18804 22.8942 8.00639 22.791 7.82915C22.7902 7.82915 22.7902 7.82915 22.7902 7.82915C20.8105 4.45414 15.7392 3.90262 15.5238 3.88065C15.2023 3.84842 14.8896 4.02933 14.7599 4.32889C14.6742 4.52738 12.6798 9.22295 14.6581 12.5958C14.7621 12.7737 14.8756 12.9451 14.9965 13.1085C15.967 14.418 17.2721 14.9351 18.5422 14.9351C19.454 14.9351 20.3476 14.6685 21.0844 14.2364ZM16.2021 12.2149C16.1134 12.0955 16.0307 11.971 15.953 11.8384C14.7006 9.70342 15.5209 6.67631 15.9369 5.45976C17.2011 5.69047 20.2443 6.45292 21.4968 8.58794C21.5729 8.71904 21.6425 8.85381 21.7033 8.98931C22.4775 10.7076 21.5693 12.2127 20.3256 12.9422C19.0805 13.6717 17.3241 13.7296 16.2021 12.2149Z" fill="#18384B"/>
<path d="M3.96589 15.3874C3.9908 15.602 4.61189 20.6659 8.01254 22.5988C8.19271 22.7013 8.37582 22.7929 8.56039 22.872C9.19613 23.1481 9.8121 23.2704 10.3958 23.2697C12.1698 23.2697 13.6361 22.1432 14.3963 20.8066C15.4064 19.029 15.4584 16.371 13.1864 14.7355C13.0209 14.6161 12.8487 14.5048 12.6678 14.403C9.26645 12.4723 4.60017 14.5282 4.40315 14.6176C4.10505 14.7516 3.92854 15.0629 3.96589 15.3874ZM11.9288 15.7082C11.9295 15.7089 11.9303 15.7096 11.931 15.7096C12.0621 15.7836 12.1874 15.8642 12.3089 15.9521C13.839 17.0536 13.8045 18.8114 13.0919 20.0654C12.38 21.3193 10.8858 22.2472 9.15658 21.4958C9.02035 21.4365 8.88559 21.3698 8.75375 21.2951C6.60262 20.0719 5.79842 17.0397 5.55013 15.7792C6.76082 15.3456 9.77621 14.4843 11.9288 15.7082Z" fill="#18384B"/>
<path d="M0.142109 29.4762C-0.0497861 29.7414 -0.0468564 30.0995 0.147968 30.3618C0.276143 30.5346 3.32596 34.5842 7.22172 34.5842C7.23417 34.5842 7.24662 34.5842 7.25907 34.5842C7.46415 34.5827 7.66777 34.5695 7.86918 34.5468C10.6517 34.2289 11.9041 31.8837 11.8902 29.8395C11.8763 27.7953 10.5923 25.4677 7.80546 25.1872C7.61137 25.1681 7.41654 25.1579 7.21952 25.1579C7.21073 25.1579 7.20268 25.1542 7.19389 25.1579C3.28201 25.185 0.268086 29.3012 0.142109 29.4762ZM7.20268 26.6579C7.35429 26.6571 7.5059 26.6652 7.65531 26.6799C9.53105 26.8681 10.3799 28.4076 10.3902 29.8498C10.3997 31.2919 9.57134 32.8425 7.69999 33.0563C7.55058 33.0739 7.3997 33.0827 7.24809 33.0842C7.23857 33.0842 7.22978 33.0842 7.22025 33.0842C4.75638 33.0842 2.55618 30.8715 1.71536 29.9076C2.54373 28.9284 4.71829 26.6762 7.20268 26.6579Z" fill="#18384B"/>
<path d="M14.236 38.9158C13.2011 37.1529 10.9262 35.7818 8.37153 36.9295C8.18769 37.013 8.00605 37.106 7.8288 37.2093C7.8288 37.21 7.8288 37.21 7.8288 37.21C4.45379 39.1897 3.90228 44.261 3.88031 44.4764C3.84735 44.8008 4.02899 45.1099 4.32855 45.2403C4.46185 45.2974 6.61811 46.2137 9.0417 46.2137C10.2312 46.2137 11.4851 45.9932 12.5954 45.3421C12.7734 45.2381 12.9448 45.1246 13.1081 45.0037C15.3581 43.3367 15.2702 40.6795 14.236 38.9158ZM12.2146 43.7982C12.0952 43.8868 11.9707 43.9695 11.8381 44.0472C9.70161 45.2989 6.67597 44.4793 5.45941 44.0633C5.69013 42.7991 6.45258 39.7559 8.58759 38.5035C8.7187 38.4273 8.85347 38.3577 8.98896 38.2969C10.7036 37.522 12.2116 38.4295 12.9419 39.6746C13.6714 40.919 13.7299 42.6761 12.2146 43.7982Z" fill="#18384B"/>
<path d="M15.302 56.0394C15.3306 56.0394 15.3591 56.038 15.3877 56.0343C15.6023 56.0094 20.6663 55.3883 22.5991 51.9877C22.7017 51.8075 22.7932 51.6244 22.8723 51.4398C23.9886 48.8712 22.5838 46.6146 20.8069 45.6039C19.0293 44.5931 16.3706 44.5418 14.7358 46.8138C14.6165 46.9793 14.5051 47.1515 14.4033 47.3324C12.4727 50.733 14.5293 55.4 14.6179 55.597C14.7402 55.868 15.009 56.0394 15.302 56.0394ZM15.7085 48.0714C15.7092 48.0707 15.71 48.0699 15.71 48.0692C15.7839 47.9381 15.8645 47.8128 15.9524 47.6913C16.5984 46.794 17.47 46.4352 18.3335 46.4352C18.9422 46.4352 19.5471 46.6139 20.0657 46.9083C21.3189 47.6209 22.2476 49.1136 21.4961 50.8436C21.4368 50.9798 21.3701 51.1146 21.2954 51.2464C20.0723 53.3976 17.04 54.2018 15.7795 54.4501C15.3467 53.2394 14.4861 50.2225 15.7085 48.0714Z" fill="#18384B"/>
<path d="M29.8399 48.1096C27.7957 48.1235 25.4681 49.4074 25.1875 52.1943C25.1678 52.3957 25.1575 52.5993 25.1582 52.8037C25.1582 52.8044 25.1582 52.8051 25.1582 52.8059C25.1853 56.7177 29.3016 59.7317 29.4766 59.8576C29.6077 59.9529 29.7615 59.9997 29.9153 59.9997C30.0728 59.9997 30.2295 59.9507 30.3621 59.8518C30.5357 59.7229 34.6109 56.6533 34.5845 52.7407C34.5831 52.5356 34.5699 52.332 34.5472 52.1306C34.2293 49.3488 31.9024 48.0693 29.8399 48.1096ZM29.908 58.2844C28.9288 57.456 26.6766 55.2815 26.6582 52.7971C26.6575 52.6447 26.6648 52.4939 26.6802 52.3444C26.8684 50.4687 28.408 49.6198 29.8501 49.6096C29.8582 49.6096 29.867 49.6096 29.8751 49.6096C31.3099 49.6096 32.8443 50.4394 33.0567 52.2998C33.0743 52.4492 33.0831 52.6001 33.0845 52.7517C33.1014 55.2273 30.8755 57.4399 29.908 58.2844Z" fill="#18384B"/>
<path d="M37.2093 52.1716C37.21 52.1716 37.21 52.1716 37.21 52.1716C39.1898 55.5466 44.2611 56.0981 44.4764 56.1201C44.5013 56.1223 44.5269 56.1237 44.5518 56.1237C44.8485 56.1237 45.1202 55.948 45.2403 55.6718C45.326 55.4733 47.3204 50.7778 45.3421 47.405C45.2381 47.227 45.1246 47.0556 45.0037 46.8923C43.3367 44.6423 40.6788 44.7309 38.9158 45.7643C37.1529 46.7985 35.7789 49.0749 36.9295 51.6288C37.013 51.8127 37.106 51.9943 37.2093 52.1716ZM39.6746 47.0585C40.9183 46.3276 42.6754 46.2704 43.7982 47.7858C43.8868 47.9052 43.9696 48.0297 44.0472 48.1623C45.2996 50.2973 44.4793 53.3244 44.0633 54.541C42.7991 54.3103 39.7559 53.5478 38.5035 51.4128C38.4273 51.2817 38.3577 51.1469 38.2969 51.0114C37.5228 49.2931 38.431 47.788 39.6746 47.0585Z" fill="#18384B"/>
<path d="M47.3321 45.5968C48.4109 46.2091 49.6172 46.4208 50.7679 46.4208C53.2442 46.4208 55.462 45.443 55.5967 45.3822C55.8948 45.2482 56.0713 44.9369 56.034 44.6125C56.0091 44.3979 55.388 39.3339 51.9873 37.401C51.8072 37.2985 51.6241 37.2069 51.4395 37.1278C48.8701 36.0116 46.6135 37.4164 45.6035 39.1933C44.5935 40.9709 44.5415 43.6288 46.8135 45.2643C46.979 45.3837 47.1511 45.495 47.3321 45.5968ZM46.908 39.9345C47.4434 38.9926 48.419 38.2345 49.6055 38.2345C49.9981 38.2345 50.4134 38.3173 50.8433 38.504C50.9795 38.5634 51.1143 38.63 51.2461 38.7047C53.3973 39.9279 54.2015 42.9601 54.4498 44.2206C53.2376 44.6535 50.2229 45.5141 48.0711 44.2917C48.0703 44.2909 48.0696 44.2902 48.0689 44.2902C47.9378 44.2162 47.8125 44.1357 47.6909 44.0478C46.1609 42.9462 46.1953 41.1884 46.908 39.9345Z" fill="#18384B"/>
<path d="M52.7784 25.4158C52.766 25.4158 52.7535 25.4158 52.7411 25.4158C52.536 25.4172 52.3324 25.4304 52.131 25.4531C49.3485 25.771 48.0961 28.1162 48.11 30.1604C48.1239 32.2046 49.4078 34.5323 52.1947 34.8128C52.3888 34.8318 52.5836 34.8421 52.7806 34.8421C52.7894 34.8421 52.796 34.8399 52.8063 34.8421C56.7182 34.815 59.7321 30.6987 59.8581 30.5237C60.05 30.2586 60.047 29.9004 59.8522 29.6382C59.724 29.4653 56.6742 25.4158 52.7784 25.4158ZM52.7975 33.3421C52.6481 33.3413 52.4943 33.3355 52.3449 33.3201C50.4691 33.1319 49.6202 31.5923 49.61 30.1502C49.6005 28.708 50.4288 27.1575 52.3002 26.9436C52.4496 26.926 52.6005 26.9172 52.7521 26.9158C52.7616 26.9158 52.7704 26.9158 52.7799 26.9158C55.2438 26.9158 57.444 29.1284 58.2848 30.0923C57.4564 31.0715 55.2819 33.3238 52.7975 33.3421Z" fill="#18384B"/>
<path d="M51.6287 23.0702C51.8125 22.9867 51.9942 22.8937 52.1714 22.7904C52.1714 22.7897 52.1714 22.7897 52.1714 22.7897C55.5464 20.8099 56.0979 15.7386 56.1199 15.5233C56.1529 15.1988 55.9712 14.8897 55.6717 14.7594C55.4724 14.6744 50.7769 12.6785 47.4048 14.6576C47.2268 14.7616 47.0554 14.8751 46.8921 14.9959C44.6421 16.6629 44.73 19.3202 45.7642 21.0838C46.5347 22.3963 47.9922 23.4935 49.7412 23.4935C50.3418 23.4935 50.9761 23.3639 51.6287 23.0702ZM47.0583 20.325C46.3289 19.0807 46.2703 17.3236 47.7856 16.2015C47.905 16.1129 48.0295 16.0301 48.1621 15.9525C49.0073 15.4574 49.9917 15.286 50.9482 15.286C52.4094 15.286 53.8054 15.6851 54.5408 15.9364C54.3101 17.2005 53.5476 20.2438 51.4126 21.4962C51.2815 21.5724 51.1467 21.6419 51.0112 21.7027C49.2944 22.4762 47.7878 21.5687 47.0583 20.325Z" fill="#18384B"/>
<path d="M42.2608 25.6706C42.2608 25.297 41.9854 24.9799 41.6155 24.9279C39.103 24.5743 36.9371 24.7993 35.1228 25.5681C35.0224 23.5678 34.2997 19.6633 30.4593 16.6874C30.1897 16.4779 29.8103 16.4779 29.5408 16.6874C25.7 19.6635 24.9775 23.5684 24.8772 25.5686C23.0616 24.7995 20.8946 24.5742 18.3845 24.9279C18.0146 24.9799 17.7393 25.297 17.7393 25.6706C17.7393 32.1803 22.8391 37.5212 29.253 37.9086V42.7199C29.253 43.1345 29.5884 43.4699 30.003 43.4699C30.4175 43.4699 30.753 43.1345 30.753 42.7199V37.9086C37.1639 37.5182 42.2608 32.1781 42.2608 25.6706ZM29.253 36.4057C23.885 36.0358 19.5879 31.7123 19.2598 26.3334C22.158 26.0463 24.4885 26.6396 26.1775 28.1037C28.9204 30.4804 29.2178 34.4941 29.2493 35.2595C29.2471 35.3276 29.2471 35.3715 29.2471 35.3876C29.2471 35.4199 29.2493 35.4513 29.253 35.4821V36.4057ZM30 31.3154C29.4866 29.8461 28.6223 28.2406 27.1699 26.9779C26.9141 26.7556 26.6453 26.5526 26.3672 26.3636C26.335 25.2137 26.501 21.2666 30 18.2482C33.5235 21.2818 33.6758 25.1962 33.6357 26.3612C33.3566 26.5508 33.0869 26.7547 32.8301 26.9779C31.3777 28.2406 30.5135 29.8461 30 31.3154ZM30.753 36.405V35.3876C30.753 35.3708 30.753 35.3254 30.7508 35.2543C30.7815 34.478 31.073 30.4928 33.8145 28.1103C35.5042 26.6418 37.8326 26.0463 40.7403 26.3334C40.4129 31.7101 36.118 36.0329 30.753 36.405Z" fill="#18384B"/>
</svg>
