<svg width="62" height="60" viewBox="0 0 62 60" fill="none" xmlns="http://www.w3.org/2000/svg">
<path d="M0.751659 39.2061C1.00968 39.2061 1.26168 39.0729 1.4016 38.8345L1.91237 37.9626C5.47951 50.9772 17.2559 60.0004 30.8309 60.0004C44.6707 60.0004 56.6471 50.6244 59.9555 37.1999C60.0548 36.7966 59.8081 36.3889 59.4049 36.2896C59.0032 36.1933 58.5947 36.4363 58.4947 36.8403C55.3525 49.5908 43.9763 58.4959 30.8309 58.4959C17.9043 58.4959 6.69589 49.8827 3.33787 37.4722L4.34889 38.0649C4.70771 38.2748 5.16808 38.1552 5.37871 37.7964C5.58934 37.4376 5.46823 36.9772 5.11016 36.7666L2.60293 35.2967C2.24411 35.086 1.78299 35.2072 1.57311 35.5652L0.103225 38.0725C-0.106652 38.4313 0.0137078 38.8916 0.371776 39.1023C0.491383 39.173 0.622273 39.2061 0.751659 39.2061Z" fill="#18384B"/>
<path d="M61.236 20.6589C60.8636 20.4798 60.4123 20.6363 60.2317 21.0102L59.7458 22.0212C56.1734 9.01414 44.4053 0 30.8318 0C16.9777 0 4.99823 9.388 1.70039 22.8314C1.60184 23.2353 1.84858 23.6423 2.25178 23.7408C2.65348 23.8386 3.0627 23.5934 3.16125 23.1894C6.29359 10.4216 17.672 1.50449 30.831 1.50449C43.7433 1.50449 54.9352 10.0921 58.3097 22.4763L57.3559 22.0174C56.982 21.8384 56.5322 21.9941 56.3524 22.3687C56.1719 22.7433 56.3298 23.1924 56.7037 23.3722L59.323 24.633C59.4261 24.6826 59.5374 24.7075 59.6495 24.7075C59.733 24.7075 59.8172 24.6932 59.8985 24.6653C60.0866 24.5991 60.2415 24.4615 60.3273 24.2817L61.588 21.6624C61.7678 21.2885 61.6098 20.8387 61.236 20.6589Z" fill="#18384B"/>
<path d="M45.6299 30.1274C49.4475 25.5327 48.4869 14.3009 48.4448 13.8255C48.4267 13.6262 48.3304 13.4419 48.1762 13.314C48.022 13.1861 47.8272 13.1244 47.6241 13.1432C47.1487 13.1883 35.932 14.3032 32.1143 18.8986C31.2568 19.9315 30.6354 21.2148 30.2367 22.6952C23.5568 19.9856 14.5464 19.7246 14.0529 19.7133C13.652 19.7111 13.2932 20.0315 13.2826 20.4467C13.2668 21.0914 12.9592 36.3101 18.4724 42.1001C22.0621 45.8696 27.8047 46.6925 32.1354 46.6925C35.3272 46.6925 37.7524 46.2457 37.9811 46.2021C38.0119 46.1961 38.0397 46.1818 38.0691 46.172C38.0924 46.1645 38.1157 46.1584 38.1383 46.1479C38.218 46.1133 38.291 46.0689 38.3534 46.0103C38.3549 46.0087 38.3572 46.008 38.3587 46.0065C38.3647 46.0005 38.3662 45.993 38.3722 45.9869C38.4279 45.9305 38.4715 45.8651 38.5076 45.7936C38.5189 45.7703 38.5287 45.7485 38.5377 45.7252C38.5453 45.7048 38.5573 45.6875 38.5633 45.6665C38.6611 45.3174 40.2077 39.6425 39.1786 33.8495C41.9552 33.1815 44.1292 31.9343 45.6299 30.1274ZM33.2713 19.8607C35.7928 16.8254 42.4073 15.436 45.7585 14.9102L35.4851 26.0201C35.4648 25.9983 35.4475 25.9757 35.4272 25.9547C34.4305 24.9076 33.1133 24.038 31.6254 23.312C31.9639 21.9422 32.5107 20.7762 33.2713 19.8607ZM37.4169 43.9295L15.844 21.3171C20.0408 21.6165 30.3165 22.7689 34.3379 26.992C39.1666 32.0629 38.0646 40.6475 37.4169 43.9295ZM19.5624 41.0627C15.5695 36.869 14.9007 26.6633 14.7992 22.4018L36.2885 44.9263C32.8718 45.3295 24.0946 45.8222 19.5624 41.0627ZM38.8597 32.3796C38.3895 30.5622 37.6298 28.7779 36.4548 27.1869L47.0411 15.7385C47.1524 19.034 47.0584 26.0532 44.4722 29.166C43.1896 30.7104 41.2985 31.7868 38.8597 32.3796Z" fill="#18384B"/>
</svg>
