<svg width="44" height="44" viewBox="0 0 44 44" fill="none" xmlns="http://www.w3.org/2000/svg">
<rect width="44" height="44" rx="10" transform="matrix(-1 0 0 1 44 0)" fill="#ED7738"/>
<path d="M17.9999 21.01V21M25.9999 21.01V21M17.9999 18V17C17.9999 15.9391 18.4213 14.9217 19.1714 14.1716C19.9216 13.4214 20.939 13 21.9999 13C23.0607 13 24.0782 13.4214 24.8283 14.1716C25.5784 14.9217 25.9999 15.9391 25.9999 17V18M17.9999 18H16.8401C15.8 18 14.9334 18.7973 14.8471 19.8339L14.1804 27.8339C14.0832 28.9999 15.0034 30 16.1735 30H27.8263C28.9964 30 29.9165 28.9999 29.8194 27.8339L29.1527 19.8339C29.0663 18.7973 28.1998 18 27.1596 18H25.9999M17.9999 18H25.9999" stroke="white" stroke-width="1.5" stroke-linecap="round" stroke-linejoin="round"/>
</svg>
