<svg width="106" height="46" viewBox="0 0 106 46" fill="none" xmlns="http://www.w3.org/2000/svg">
<path d="M99.4135 37.2247C99.4135 39.5964 104.352 40.4335 104.352 43.4609C104.352 45.0373 103.459 46 101.925 46C98.9531 46 98.3671 41.9541 98.0044 40.2103C97.558 38.006 96.3721 35.9412 94.6561 35.9412C93.7354 35.9412 93.0518 36.4435 93.0518 37.2247C93.0518 39.5964 97.9904 40.4335 97.9904 43.4609C97.9904 45.0373 96.9441 46 95.0328 46C93.6098 46 92.7727 45.2187 92.4658 44.7025C92.4658 44.7025 92.4658 42.6935 92.4658 42.5959C92.5495 43.0702 93.1355 45.2466 94.0702 45.6512C94.3492 45.7628 94.6701 45.8325 95.0328 45.8325C96.5953 45.8325 97.4045 45.1071 97.4045 44.0049C97.4045 40.8101 92.4658 40.1126 92.4658 37.5874C92.4658 36.583 93.2889 35.7738 94.6561 35.7738C96.5256 35.7738 98.0183 37.5037 98.6043 40.1126C99.0786 42.2471 99.4414 45.8325 101.925 45.8325C102.943 45.8325 103.766 45.1071 103.766 44.0049C103.766 40.8101 98.8275 40.1126 98.8275 37.5874C98.8275 36.583 99.7762 35.7738 101.464 35.7738C102.65 35.7738 103.376 36.011 103.892 36.4156C103.892 36.4156 103.892 38.0339 103.892 38.1315C103.794 37.6712 103.278 36.1923 102.273 36.011C102.022 35.9691 101.757 35.9412 101.464 35.9412C100.223 35.9412 99.4135 36.4435 99.4135 37.2247Z" fill="#F8F8F8"/>
<path d="M77.604 45.7768C78.0365 45.5814 78.1899 45.2187 78.1899 44.1445V37.6293C78.1899 36.5551 78.0365 36.1924 77.604 36.011C77.7017 36.011 82.8636 36.011 82.8636 36.011C82.8636 36.011 82.8636 37.2945 82.8636 37.3921C82.752 36.9318 82.3753 36.1644 81.2313 36.1644H78.7899V40.8102H80.3245C81.3987 40.8102 81.7614 40.6567 81.9428 40.2103C81.9428 40.3079 81.9428 41.4659 81.9428 41.5635C81.7614 41.1171 81.3987 40.9636 80.3245 40.9636H78.7899V45.6093H81.4685C82.6124 45.6093 82.9891 44.842 83.0868 44.3816C83.0868 44.4793 83.0868 45.7768 83.0868 45.7768C83.0868 45.7768 77.7017 45.7768 77.604 45.7768Z" fill="#F8F8F8"/>
<path d="M61.9141 45.7768C62.3465 45.5815 62.5 45.2187 62.5 44.1445V37.6293C62.5 36.5551 62.3465 36.1924 61.9141 35.9971C62.0117 35.9971 63.0999 35.9971 63.0999 35.9971L67.5503 44.6188V37.6293C67.5503 36.5551 67.3968 36.1924 66.9504 36.011C67.0481 36.011 68.206 36.011 68.3037 36.011C67.8572 36.1924 67.7038 36.5551 67.7038 37.6293V45.7768H67.5503L62.6674 36.3179V44.1445C62.6674 45.2187 62.8069 45.5815 63.2534 45.7768C63.1557 45.7768 62.0117 45.7768 61.9141 45.7768Z" fill="#F8F8F8"/>
<path d="M47.6543 45.7768C48.0868 45.5814 48.2402 45.2187 48.2402 44.1445V37.6293C48.2402 36.5551 48.0868 36.1924 47.6543 36.011C47.752 36.011 49.3284 36.011 49.4261 36.011C48.9936 36.1924 48.8401 36.5551 48.8401 37.6293V45.6093H51.2816C52.4256 45.6093 52.8023 44.842 52.9139 44.3816C52.9139 44.4793 52.9139 45.7768 52.9139 45.7768C52.9139 45.7768 47.752 45.7768 47.6543 45.7768Z" fill="#F8F8F8"/>
<path d="M33.395 45.7768C33.8275 45.5814 33.981 45.2187 33.981 44.1445V37.6293C33.981 36.5551 33.8275 36.1924 33.395 36.011C33.4927 36.011 35.0692 36.011 35.1668 36.011C34.7343 36.1924 34.5809 36.5551 34.5809 37.6293V45.6093H37.0223C38.1663 45.6093 38.543 44.842 38.6546 44.3816C38.6546 44.4793 38.6546 45.7768 38.6546 45.7768C38.6546 45.7768 33.4927 45.7768 33.395 45.7768Z" fill="#F8F8F8"/>
<path d="M18.645 45.7768C19.0775 45.5814 19.231 45.2187 19.231 44.1445V37.6293C19.231 36.5551 19.0775 36.1924 18.645 36.011C18.7427 36.011 23.9046 36.011 23.9046 36.011C23.9046 36.011 23.9046 37.2945 23.9046 37.3921C23.793 36.9318 23.4163 36.1644 22.2723 36.1644H19.8309V40.8102H21.3655C22.4397 40.8102 22.8024 40.6567 22.9838 40.2103C22.9838 40.3079 22.9838 41.4659 22.9838 41.5635C22.8024 41.1171 22.4397 40.9636 21.3655 40.9636H19.8309V45.6093H22.5095C23.6535 45.6093 24.0301 44.842 24.1278 44.3816C24.1278 44.4793 24.1278 45.7768 24.1278 45.7768C24.1278 45.7768 18.7427 45.7768 18.645 45.7768Z" fill="#F8F8F8"/>
<path d="M1.01843 37.6293C0.739408 36.597 0.432484 36.1924 0 35.9971C0.0976577 35.9971 1.67413 35.9971 1.77179 35.9971C1.33931 36.1924 1.35326 36.6388 1.61833 37.6293L3.48777 44.6467L4.81313 39.6523L4.26904 37.6293C4.00396 36.597 3.69704 36.1924 3.25061 35.9971C3.34826 35.9971 4.92474 35.9971 5.03635 35.9971C4.58991 36.1924 4.60386 36.6388 4.86893 37.6293L6.73838 44.6467L8.60783 37.6293C8.8729 36.6388 8.88685 36.1924 8.44041 35.9971C8.53807 35.9971 9.69601 35.9971 9.79367 35.9971C9.34723 36.1924 9.04031 36.597 8.76129 37.6293L6.59887 45.7628H6.44541L4.89683 39.9452L3.34826 45.7628H3.18085L1.01843 37.6293Z" fill="#F8F8F8"/>
<path d="M105.457 10.2444C105.457 10.2444 103.658 10.5213 103.658 18.966C103.658 27.3645 105.411 31.933 105.411 31.933H97.8433C99.1353 29.6257 99.643 11.9056 97.8433 10.2444H105.457ZM101.627 5.02991C100.243 5.02991 99.1354 3.87626 99.1354 2.49188C99.1354 1.1075 100.243 0 101.627 0C103.012 0 104.165 1.1075 104.165 2.49188C104.165 3.87626 103.012 5.02991 101.627 5.02991Z" fill="#F8F8F8"/>
<path d="M96.4266 31.9329H88.1665C88.1665 31.9329 95.5037 11.5364 87.8896 11.5364C83.7826 11.5364 83.3212 21.3194 83.275 23.4882C83.4134 28.0567 82.9981 31.9329 82.9981 31.9329H75.3841C75.3841 31.9329 83.3212 12.8285 75.8455 11.5364C71.0463 10.7058 70.4926 17.72 70.4926 21.5039C70.7695 28.4258 72.7999 31.9329 72.7999 31.9329H64.9551C65.6934 24.7803 65.7396 17.8123 64.9551 11.1673H71.7385C71.7385 11.1673 71.3694 11.4441 71.0463 12.8747C71.3694 12.367 71.6924 11.9056 72.1077 11.5364C75.2456 8.76766 80.0909 10.0597 81.6599 14.0283C81.8906 14.582 82.0752 15.1819 82.2598 15.828C82.7674 13.936 83.1827 12.4132 84.1518 11.5364C87.2897 8.76766 92.1812 10.0597 93.7501 14.0283C96.3343 20.6272 96.4266 31.9329 96.4266 31.9329Z" fill="#F8F8F8"/>
<path d="M55.827 10.2905C65.01 10.2905 62.5643 31.933 62.5643 31.933L54.6272 31.8868C54.6272 31.8868 54.7656 31.6099 54.904 31.1023C53.4735 32.3021 51.5354 33.1328 49.2281 32.7174C42.8138 31.4715 44.0597 16.7048 57.8112 14.9974C57.5805 13.8899 57.0267 13.1516 56.0577 13.1054C51.9045 12.8286 45.9517 19.2428 45.9517 19.2428L45.1211 12.5055C45.1211 12.5055 50.6586 10.2905 55.827 10.2905ZM57.3036 22.2885C57.5344 21.3194 57.5344 20.3042 57.3036 19.3351C56.9806 17.6739 55.9654 15.9665 53.1505 17.6739C48.259 20.6734 49.9664 30.6409 52.2276 30.7793C54.1657 30.9178 55.4578 28.8873 56.2884 26.4877C56.6576 25.1495 57.0267 23.719 57.3036 22.2885Z" fill="#F8F8F8"/>
<path d="M43.7645 10.2444C43.7645 10.2444 41.9648 10.5213 41.9648 18.966C41.9648 27.3645 43.7183 31.933 43.7183 31.933H36.1504C37.4425 29.6257 37.9501 11.9056 36.1504 10.2444H43.7645ZM39.9344 5.02991C38.55 5.02991 37.4425 3.87626 37.4425 2.49188C37.4425 1.1075 38.55 0 39.9344 0C41.3187 0 42.4724 1.1075 42.4724 2.49188C42.4724 3.87626 41.3187 5.02991 39.9344 5.02991Z" fill="#F8F8F8"/>
<path d="M7.72467 32.256H0.156738C0.895073 21.2733 0.941219 10.6135 0.156738 0.322998H7.77082C7.77082 0.322998 12.9392 16.4741 17.4153 25.7494L27.106 0.322998H34.7662C34.7662 0.322998 32.9665 1.47664 32.9665 13.5669C32.9665 25.7033 34.72 32.256 34.72 32.256H27.106C27.7982 22.473 27.8904 12.9208 27.3367 3.69165C25.3063 9.32145 20.0918 23.396 19.3996 25.8417C18.7535 28.1028 19.6303 29.7641 20.1841 30.5486C20.784 31.3792 21.3839 31.8868 21.8453 32.0253H16.1694C16.1694 32.0253 16.4924 31.3792 16.1694 29.8102C15.7541 27.6875 8.04769 4.52228 6.70946 3.18404C6.29415 5.07603 5.97113 8.30624 5.97113 13.5669C5.97113 25.7033 7.72467 32.256 7.72467 32.256Z" fill="#F8F8F8"/>
</svg>
