<svg width="18" height="19" viewBox="0 0 18 19" fill="none" xmlns="http://www.w3.org/2000/svg">
<path d="M4.57654 8.76V8.75M12.5765 8.76V8.75M4.57654 5.75V4.75C4.57654 3.68913 4.99797 2.67172 5.74811 1.92157C6.49826 1.17143 7.51567 0.75 8.57654 0.75C9.6374 0.75 10.6548 1.17143 11.405 1.92157C12.1551 2.67172 12.5765 3.68913 12.5765 4.75V5.75M4.57654 5.75H3.4168C2.37663 5.75 1.5101 6.54732 1.42371 7.58391L0.757047 15.5839C0.659877 16.7499 1.58006 17.75 2.75014 17.75H14.4029C15.573 17.75 16.4932 16.7499 16.396 15.5839L15.7294 7.58391C15.643 6.54732 14.7765 5.75 13.7363 5.75H12.5765M4.57654 5.75H12.5765" stroke="#0C222F" stroke-width="1.5" stroke-linecap="round" stroke-linejoin="round"/>
</svg>
