<svg width="129" height="16" viewBox="0 0 129 16" fill="none" xmlns="http://www.w3.org/2000/svg">
<path d="M7.4039 1.75623C7.58351 1.20344 8.36556 1.20344 8.54517 1.75623L9.63022 5.09568C9.71055 5.34289 9.94092 5.51027 10.2009 5.51027L13.7122 5.51027C14.2934 5.51027 14.5351 6.25404 14.0648 6.59568L11.2241 8.65957C11.0138 8.81236 10.9258 9.08318 11.0062 9.33039L12.0912 12.6698C12.2708 13.2226 11.6381 13.6823 11.1679 13.3407L8.32721 11.2768C8.11692 11.124 7.83216 11.124 7.62187 11.2768L4.78116 13.3407C4.31093 13.6823 3.67824 13.2226 3.85786 12.6698L4.94291 9.33039C5.02323 9.08318 4.93524 8.81236 4.72495 8.65957L1.88424 6.59568C1.41401 6.25404 1.65568 5.51027 2.23691 5.51027L5.74822 5.51027C6.00815 5.51027 6.23853 5.34289 6.31885 5.09568L7.4039 1.75623Z" fill="#393A2D"/>
<path d="M23.3531 1.75623C23.5327 1.20344 24.3148 1.20344 24.4944 1.75623L25.5794 5.09568C25.6598 5.34289 25.8901 5.51027 26.1501 5.51027L29.6614 5.51027C30.2426 5.51027 30.4843 6.25404 30.0141 6.59568L27.1733 8.65957C26.9631 8.81236 26.8751 9.08318 26.9554 9.33039L28.0404 12.6698C28.22 13.2226 27.5874 13.6823 27.1171 13.3407L24.2764 11.2768C24.0661 11.124 23.7814 11.124 23.5711 11.2768L20.7304 13.3407C20.2602 13.6823 19.6275 13.2226 19.8071 12.6698L20.8921 9.33039C20.9725 9.08318 20.8845 8.81236 20.6742 8.65957L17.8335 6.59568C17.3632 6.25404 17.6049 5.51027 18.1861 5.51027L21.6974 5.51027C21.9574 5.51027 22.1877 5.34289 22.2681 5.09568L23.3531 1.75623Z" fill="#393A2D"/>
<path d="M39.3023 1.75623C39.482 1.20344 40.264 1.20344 40.4436 1.75623L41.5287 5.09568C41.609 5.34289 41.8394 5.51027 42.0993 5.51027L45.6106 5.51027C46.1918 5.51027 46.4335 6.25404 45.9633 6.59568L43.1226 8.65957C42.9123 8.81236 42.8243 9.08318 42.9046 9.33039L43.9897 12.6698C44.1693 13.2226 43.5366 13.6823 43.0664 13.3407L40.2256 11.2768C40.0154 11.124 39.7306 11.124 39.5203 11.2768L36.6796 13.3407C36.2094 13.6823 35.5767 13.2226 35.7563 12.6698L36.8413 9.33039C36.9217 9.08318 36.8337 8.81236 36.6234 8.65957L33.7827 6.59568C33.3125 6.25404 33.5541 5.51027 34.1353 5.51027L37.6467 5.51027C37.9066 5.51027 38.137 5.34289 38.2173 5.09568L39.3023 1.75623Z" fill="#393A2D"/>
<path d="M71.2008 1.75623C71.3804 1.20344 72.1624 1.20344 72.342 1.75623L73.4271 5.09568C73.5074 5.34289 73.7378 5.51027 73.9977 5.51027L77.509 5.51027C78.0903 5.51027 78.3319 6.25404 77.8617 6.59568L75.021 8.65957C74.8107 8.81236 74.7227 9.08318 74.803 9.33039L75.8881 12.6698C76.0677 13.2226 75.435 13.6823 74.9648 13.3407L72.1241 11.2768C71.9138 11.124 71.629 11.124 71.4187 11.2768L68.578 13.3407C68.1078 13.6823 67.4751 13.2226 67.6547 12.6698L68.7398 9.33039C68.8201 9.08318 68.7321 8.81236 68.5218 8.65957L65.6811 6.59568C65.2109 6.25404 65.4526 5.51027 66.0338 5.51027L69.5451 5.51027C69.805 5.51027 70.0354 5.34289 70.1157 5.09568L71.2008 1.75623Z" fill="#93A7B4"/>
<path d="M55.2516 1.75623C55.4312 1.20344 56.2132 1.20344 56.3928 1.75623L57.4779 5.09568C57.5582 5.34289 57.7886 5.51027 58.0485 5.51027L61.5598 5.51027C62.1411 5.51027 62.3827 6.25404 61.9125 6.59568L59.0718 8.65957C58.8615 8.81236 58.7735 9.08318 58.8538 9.33039L59.9389 12.6698C60.1185 13.2226 59.4858 13.6823 59.0156 13.3407L56.1749 11.2768C55.9646 11.124 55.6798 11.124 55.4695 11.2768L52.6288 13.3407C52.1586 13.6823 51.5259 13.2226 51.7055 12.6698L52.7906 9.33039C52.8709 9.08318 52.7829 8.81236 52.5726 8.65957L49.7319 6.59568C49.2617 6.25404 49.5033 5.51027 50.0846 5.51027L53.5959 5.51027C53.8558 5.51027 54.0862 5.34289 54.1665 5.09568L55.2516 1.75623Z" fill="#393A2D"/>
<path d="M71.4039 1.75623C71.5835 1.20344 72.3656 1.20344 72.5452 1.75623L73.6302 5.09568C73.7105 5.34289 73.9409 5.51027 74.2009 5.51027L77.7122 5.51027C78.2934 5.51027 78.5351 6.25404 78.0648 6.59568L75.2241 8.65957C75.0138 8.81236 74.9258 9.08318 75.0062 9.33039L76.0912 12.6698C76.2708 13.2226 75.6381 13.6823 75.1679 13.3407L72.3272 11.2768C72.1169 11.124 71.8322 11.124 71.6219 11.2768L68.7812 13.3407C68.3109 13.6823 67.6782 13.2226 67.8579 12.6698L68.9429 9.33039C69.0232 9.08318 68.9352 8.81236 68.7249 8.65957L65.8842 6.59568C65.414 6.25404 65.6557 5.51027 66.2369 5.51027L69.7482 5.51027C70.0082 5.51027 70.2385 5.34289 70.3189 5.09568L71.4039 1.75623Z" fill="#A9AD90"/>
<path d="M71.5099 1.42951C71.66 0.967617 72.3108 0.960192 72.4713 1.41854C72.4902 1.47246 72.4999 1.52918 72.4999 1.58631V8V8.84237C72.4999 10.1891 71.8222 11.4454 70.6968 12.185L68.7154 13.4873C68.2416 13.7987 67.64 13.3398 67.8152 12.8005L68.9427 9.33039C69.0231 9.08318 68.9351 8.81236 68.7248 8.65957L65.8841 6.59568C65.4138 6.25404 65.6555 5.51027 66.2367 5.51027L69.7481 5.51027C70.008 5.51027 70.2384 5.34289 70.3187 5.09568L71.5099 1.42951Z" fill="#393A2D"/>
<path d="M86.9711 13V11.27H83.7511V10.68L86.7611 6.4H87.7711V10.58H88.9411V11.27H87.7711V13H86.9711ZM84.6011 10.58H86.9711V8.11C86.9711 7.93667 86.9745 7.76 86.9811 7.58C86.9945 7.4 87.0045 7.22333 87.0111 7.05H86.9911C86.9111 7.21667 86.8078 7.40333 86.6811 7.61C86.5545 7.81667 86.4378 7.99667 86.3311 8.15L84.6011 10.58ZM90.447 11.8C90.607 11.8 90.7403 11.8433 90.847 11.93C90.9603 12.01 91.047 12.1233 91.107 12.27C91.167 12.41 91.197 12.5767 91.197 12.77C91.197 12.99 91.157 13.2067 91.077 13.42C91.0037 13.6333 90.887 13.83 90.727 14.01C90.567 14.19 90.3603 14.34 90.107 14.46L89.687 14.07C89.867 14.01 90.0237 13.9267 90.157 13.82C90.297 13.7133 90.4103 13.5933 90.497 13.46C90.5837 13.3267 90.6403 13.19 90.667 13.05L90.627 13.03C90.6003 13.05 90.567 13.0667 90.527 13.08C90.487 13.0933 90.427 13.1 90.347 13.1C90.267 13.1 90.1837 13.0767 90.097 13.03C90.017 12.9833 89.947 12.9167 89.887 12.83C89.827 12.7367 89.797 12.6167 89.797 12.47C89.797 12.35 89.827 12.24 89.887 12.14C89.947 12.0333 90.0237 11.95 90.117 11.89C90.217 11.83 90.327 11.8 90.447 11.8ZM94.4432 13.1C93.8566 13.1 93.3832 12.9667 93.0232 12.7C92.6699 12.4333 92.3966 12.0633 92.2032 11.59L92.9832 11.18C93.0899 11.5267 93.2532 11.81 93.4732 12.03C93.6999 12.2433 94.0299 12.35 94.4632 12.35C94.7699 12.35 95.0299 12.2933 95.2432 12.18C95.4632 12.0667 95.6332 11.9067 95.7532 11.7C95.8732 11.4867 95.9332 11.2333 95.9332 10.94C95.9332 10.6267 95.8766 10.3667 95.7632 10.16C95.6566 9.94667 95.4999 9.78667 95.2932 9.68C95.0866 9.57333 94.8332 9.52 94.5332 9.52C94.3199 9.52 94.1199 9.54333 93.9332 9.59C93.7532 9.63 93.5899 9.69667 93.4432 9.79C93.2966 9.88333 93.1699 10.0067 93.0632 10.16L92.3632 10.03L92.7532 6.4H96.4632V7.15H93.4332L93.1732 9.23L93.1532 9.32H93.1732C93.3332 9.15333 93.5366 9.02 93.7832 8.92C94.0366 8.82 94.3366 8.77 94.6832 8.77C95.1032 8.77 95.4666 8.86 95.7732 9.04C96.0866 9.21333 96.3299 9.46 96.5032 9.78C96.6766 10.1 96.7632 10.4733 96.7632 10.9C96.7632 11.24 96.7066 11.5467 96.5932 11.82C96.4799 12.0933 96.3199 12.3267 96.1132 12.52C95.9066 12.7067 95.6599 12.85 95.3732 12.95C95.0932 13.05 94.7832 13.1 94.4432 13.1ZM99.9436 5.49L100.404 5.95C99.9636 6.35 99.6136 6.77333 99.3536 7.22C99.0936 7.66 98.9069 8.12667 98.7936 8.62C98.6802 9.10667 98.6236 9.63 98.6236 10.19C98.6236 10.7433 98.6802 11.2667 98.7936 11.76C98.9069 12.2533 99.0936 12.72 99.3536 13.16C99.6136 13.6 99.9636 14.0233 100.404 14.43L99.9436 14.89C99.2369 14.2767 98.7036 13.5767 98.3436 12.79C97.9836 11.9967 97.8036 11.13 97.8036 10.19C97.8036 9.25 97.9836 8.38333 98.3436 7.59C98.7036 6.79667 99.2369 6.09667 99.9436 5.49ZM103.368 6.3C103.721 6.3 104.028 6.35 104.288 6.45C104.555 6.54333 104.785 6.69333 104.978 6.9C105.171 7.1 105.335 7.36333 105.468 7.69L104.728 8.04C104.628 7.73333 104.465 7.49333 104.238 7.32C104.018 7.14 103.711 7.05 103.318 7.05C103.031 7.05 102.778 7.12333 102.558 7.27C102.338 7.41 102.151 7.60667 101.998 7.86C101.845 8.11333 101.728 8.41 101.648 8.75C101.575 9.09 101.538 9.45667 101.538 9.85C101.538 9.86333 101.538 9.88333 101.538 9.91C101.538 9.93667 101.538 9.97667 101.538 10.03H101.578C101.651 9.74333 101.785 9.51333 101.978 9.34C102.178 9.16 102.401 9.03 102.648 8.95C102.901 8.86333 103.148 8.82 103.388 8.82C103.835 8.82 104.225 8.90667 104.558 9.08C104.891 9.25333 105.148 9.5 105.328 9.82C105.515 10.14 105.608 10.52 105.608 10.96C105.608 11.3933 105.515 11.7733 105.328 12.1C105.141 12.42 104.878 12.6667 104.538 12.84C104.205 13.0133 103.805 13.1 103.338 13.1C102.785 13.1 102.318 12.9533 101.938 12.66C101.558 12.3667 101.271 11.9667 101.078 11.46C100.885 10.9467 100.788 10.36 100.788 9.7C100.788 8.96 100.901 8.34 101.128 7.84C101.355 7.33333 101.661 6.95 102.048 6.69C102.441 6.43 102.881 6.3 103.368 6.3ZM103.328 9.59C103.041 9.59 102.788 9.65 102.568 9.77C102.355 9.88333 102.188 10.0433 102.068 10.25C101.948 10.45 101.888 10.6833 101.888 10.95C101.888 11.2033 101.951 11.4367 102.078 11.65C102.205 11.8567 102.375 12.0233 102.588 12.15C102.808 12.27 103.055 12.33 103.328 12.33C103.781 12.33 104.135 12.21 104.388 11.97C104.641 11.7233 104.768 11.3833 104.768 10.95C104.768 10.67 104.711 10.43 104.598 10.23C104.485 10.0233 104.321 9.86667 104.108 9.76C103.895 9.64667 103.635 9.59 103.328 9.59ZM107.352 11.8C107.545 11.8 107.702 11.86 107.822 11.98C107.942 12.1 108.002 12.2567 108.002 12.45C108.002 12.6433 107.942 12.8 107.822 12.92C107.702 13.04 107.545 13.1 107.352 13.1C107.159 13.1 107.002 13.04 106.882 12.92C106.762 12.8 106.702 12.6433 106.702 12.45C106.702 12.2567 106.762 12.1 106.882 11.98C107.002 11.86 107.159 11.8 107.352 11.8ZM111.348 13.1C110.762 13.1 110.288 12.9667 109.928 12.7C109.575 12.4333 109.302 12.0633 109.108 11.59L109.888 11.18C109.995 11.5267 110.158 11.81 110.378 12.03C110.605 12.2433 110.935 12.35 111.368 12.35C111.675 12.35 111.935 12.2933 112.148 12.18C112.368 12.0667 112.538 11.9067 112.658 11.7C112.778 11.4867 112.838 11.2333 112.838 10.94C112.838 10.6267 112.782 10.3667 112.668 10.16C112.562 9.94667 112.405 9.78667 112.198 9.68C111.992 9.57333 111.738 9.52 111.438 9.52C111.225 9.52 111.025 9.54333 110.838 9.59C110.658 9.63 110.495 9.69667 110.348 9.79C110.202 9.88333 110.075 10.0067 109.968 10.16L109.268 10.03L109.658 6.4H113.368V7.15H110.338L110.078 9.23L110.058 9.32H110.078C110.238 9.15333 110.442 9.02 110.688 8.92C110.942 8.82 111.242 8.77 111.588 8.77C112.008 8.77 112.372 8.86 112.678 9.04C112.992 9.21333 113.235 9.46 113.408 9.78C113.582 10.1 113.668 10.4733 113.668 10.9C113.668 11.24 113.612 11.5467 113.498 11.82C113.385 12.0933 113.225 12.3267 113.018 12.52C112.812 12.7067 112.565 12.85 112.278 12.95C111.998 13.05 111.688 13.1 111.348 13.1ZM116.969 13.1C116.382 13.1 115.909 12.9667 115.549 12.7C115.195 12.4333 114.922 12.0633 114.729 11.59L115.509 11.18C115.615 11.5267 115.779 11.81 115.999 12.03C116.225 12.2433 116.555 12.35 116.989 12.35C117.295 12.35 117.555 12.2933 117.769 12.18C117.989 12.0667 118.159 11.9067 118.279 11.7C118.399 11.4867 118.459 11.2333 118.459 10.94C118.459 10.6267 118.402 10.3667 118.289 10.16C118.182 9.94667 118.025 9.78667 117.819 9.68C117.612 9.57333 117.359 9.52 117.059 9.52C116.845 9.52 116.645 9.54333 116.459 9.59C116.279 9.63 116.115 9.69667 115.969 9.79C115.822 9.88333 115.695 10.0067 115.589 10.16L114.889 10.03L115.279 6.4H118.989V7.15H115.959L115.699 9.23L115.679 9.32H115.699C115.859 9.15333 116.062 9.02 116.309 8.92C116.562 8.82 116.862 8.77 117.209 8.77C117.629 8.77 117.992 8.86 118.299 9.04C118.612 9.21333 118.855 9.46 119.029 9.78C119.202 10.1 119.289 10.4733 119.289 10.9C119.289 11.24 119.232 11.5467 119.119 11.82C119.005 12.0933 118.845 12.3267 118.639 12.52C118.432 12.7067 118.185 12.85 117.899 12.95C117.619 13.05 117.309 13.1 116.969 13.1ZM120.459 13V12.35C121.119 11.8633 121.669 11.4367 122.109 11.07C122.556 10.7033 122.912 10.37 123.179 10.07C123.446 9.77 123.636 9.48667 123.749 9.22C123.862 8.94667 123.919 8.66333 123.919 8.37C123.919 7.97667 123.792 7.66 123.539 7.42C123.292 7.17333 122.952 7.05 122.519 7.05C122.066 7.05 121.702 7.2 121.429 7.5C121.156 7.79333 120.996 8.18667 120.949 8.68L120.249 8.26C120.309 7.87333 120.432 7.53333 120.619 7.24C120.812 6.94667 121.069 6.71667 121.389 6.55C121.716 6.38333 122.102 6.3 122.549 6.3C122.889 6.3 123.192 6.35 123.459 6.45C123.732 6.55 123.966 6.69333 124.159 6.88C124.352 7.06 124.499 7.27667 124.599 7.53C124.706 7.78333 124.759 8.06333 124.759 8.37C124.759 8.78333 124.659 9.19 124.459 9.59C124.259 9.98333 123.929 10.3967 123.469 10.83C123.009 11.2633 122.386 11.7433 121.599 12.27V12.28C121.672 12.2733 121.772 12.27 121.899 12.27C122.032 12.2633 122.162 12.26 122.289 12.26C122.422 12.2533 122.522 12.25 122.589 12.25H124.899V13H120.459ZM125.943 14.89L125.483 14.43C125.923 14.0233 126.273 13.6 126.533 13.16C126.793 12.72 126.979 12.2533 127.093 11.76C127.206 11.2667 127.263 10.7433 127.263 10.19C127.263 9.63 127.206 9.10667 127.093 8.62C126.979 8.12667 126.793 7.66 126.533 7.22C126.273 6.77333 125.923 6.35 125.483 5.95L125.943 5.49C126.649 6.09667 127.183 6.79667 127.543 7.59C127.903 8.38333 128.083 9.25 128.083 10.19C128.083 11.13 127.903 11.9967 127.543 12.79C127.183 13.5767 126.649 14.2767 125.943 14.89Z" fill="#324C4B"/>
</svg>
